<svg width="130" height="28" viewBox="0 0 130 28" fill="none" xmlns="http://www.w3.org/2000/svg">
<rect width="28" height="28" rx="4" fill="black" style="fill:black;fill-opacity:1;"/>
<path d="M10.5724 15.2565C10.5724 17.5025 9.6613 19.3778 8.17805 21.1047H11.6319L11.6319 22.7786H6.33459V21.1895C7.95557 19.3566 8.58065 17.8628 8.58065 15.2565L10.5724 15.2565Z" fill="white" style="fill:white;fill-opacity:1;"/>
<path d="M17.4276 15.2565C17.4276 17.5025 18.3387 19.3778 19.822 21.1047H16.3681V22.7786H21.6654V21.1895C20.0444 19.3566 19.4194 17.8628 19.4194 15.2565H17.4276Z" fill="white" style="fill:white;fill-opacity:1;"/>
<path d="M10.5724 12.7435C10.5724 10.4975 9.66131 8.62224 8.17807 6.89532L11.6319 6.89532V5.22137L6.33461 5.22137V6.81056C7.95558 8.64343 8.58066 10.1373 8.58066 12.7435L10.5724 12.7435Z" fill="white" style="fill:white;fill-opacity:1;"/>
<path d="M17.4276 12.7435C17.4276 10.4975 18.3387 8.62224 19.822 6.89532L16.3681 6.89532L16.3681 5.22138L21.6654 5.22138V6.81056C20.0444 8.64343 19.4194 10.1373 19.4194 12.7435H17.4276Z" fill="white" style="fill:white;fill-opacity:1;"/>
<path d="M42.1 21.32C38.6 21.32 36.6 18.5 36.6 13.92C36.6 9.32 38.6 6.48 42.1 6.48C44.94 6.48 46.82 8.44 47.28 11.94L44.02 12.08C43.78 10.28 43.08 9.28 42.1 9.28C40.7 9.28 39.9 10.94 39.9 13.92C39.9 16.88 40.7 18.52 42.1 18.52C43.06 18.52 43.82 17.48 44.06 15.56L47.32 15.7C46.86 19.28 44.98 21.32 42.1 21.32ZM53.5922 21.24C50.5122 21.24 48.4322 19.04 48.4322 15.62C48.4322 12.2 50.5122 10 53.5922 10C56.6722 10 58.7522 12.2 58.7522 15.62C58.7522 19.04 56.6722 21.24 53.5922 21.24ZM53.5922 18.58C54.8722 18.58 55.5922 17.56 55.5922 15.62C55.5922 13.68 54.8722 12.66 53.5922 12.66C52.3122 12.66 51.5922 13.68 51.5922 15.62C51.5922 17.56 52.3122 18.58 53.5922 18.58ZM60.5444 21V10.24H63.3244L63.3844 12.16C63.9444 10.68 65.0844 10 66.5844 10C68.8444 10 69.8244 11.62 69.8244 14.02V21H66.7644V14.68C66.7644 13.2 66.3044 12.56 65.3444 12.56C64.4244 12.56 63.6044 13.32 63.6044 14.84V21H60.5444ZM78.2166 21C75.6766 21 74.5566 19.88 74.5566 17.5V12.62H71.6166V10.24H74.5566V7.72H77.6166V10.24H81.4966V12.62H77.6166V17.16C77.6166 18.14 78.0766 18.62 79.0766 18.62H81.4966V21H78.2166ZM88.4088 21.24C85.3888 21.24 83.2488 19.04 83.2488 15.62C83.2488 12.3 85.3488 10 88.3888 10C91.4088 10 93.5288 12.28 93.5288 15.68V16.42H86.3688C86.5088 17.8 87.3088 18.58 88.4888 18.58C89.3488 18.58 90.0088 18.14 90.2688 17.42L93.2888 17.64C92.5088 20 90.8688 21.24 88.4088 21.24ZM86.4288 14.46H90.2488C90.1288 13.28 89.4288 12.66 88.3488 12.66C87.2688 12.66 86.5688 13.3 86.4288 14.46ZM94.5009 21L98.2809 15.5L94.6609 10.24H97.9409L99.9609 13.4L101.961 10.24H105.241L101.681 15.5L105.421 21H102.161L99.9609 17.56L97.7809 21H94.5009ZM112.993 21C110.453 21 109.333 19.88 109.333 17.5V12.62H106.393V10.24H109.333V7.72H112.393V10.24H116.273V12.62H112.393V17.16C112.393 18.14 112.853 18.62 113.853 18.62H116.273V21H112.993ZM120.305 21C120.305 16.72 122.065 13 124.945 9.66H118.185V6.8H128.105V9.52C124.945 13.1 123.685 16.1 123.685 21H120.305Z" fill="black" style="fill:black;fill-opacity:1;"/>
</svg>
